# AST/ASF file generated using VICON BodyLanguage
# -----------------------------------------------
:version 1.10
:name VICON
:units
  mass 1.0
  length 0.45
  angle deg
:documentation
   .ast/.asf automatically generated from VICON data using
   VICON BodyBuilder and BodyLanguage model FoxedUp or BRILLIANT.MOD
:root
   order TX TY TZ RX RY RZ
   axis XYZ
   position 0 0 0  
   orientation 0 0 0 
:bonedata
  begin
     id 1 
     name lhipjoint
     direction 0.611823 -0.767273 0.19226 
     length 2.47422 
     axis 0 0 0  XYZ
  end
  begin
     id 2 
     name lfemur
     direction 0.34202 -0.939693 0  
     length 7.40835  
     axis 0 0 20  XYZ
    dof rx ry rz
    limits (-160.0 20.0)
           (-70.0 70.0)
           (-60.0 70.0)
  end
  begin
     id 3 
     name ltibia
     direction 0.34202 -0.939693 0   
     length 8.03679   
     axis 0 0 20   XYZ
    dof rx
    limits (-10.0 170.0)
  end
  begin
     id 4 
     name lfoot
     direction 0.0883598 -0.242766 0.966052   
     length 2.06694   
     axis -90 7.62852e-016 20   XYZ
    dof rx rz
    limits (-45.0 90.0)
           (-70.0 20.0)
  end
  begin
     id 5 
     name ltoes
     direction 1.53617e-011 -4.21699e-011 1   
     length 1.03711   
     axis -90 7.62852e-016 20   XYZ
    dof rx
    limits (-90.0 20.0)
  end
  begin
     id 6 
     name rhipjoint
     direction -0.590066 -0.783143 0.196236   
     length 2.42408  
     axis 0 0 0  XYZ 
  end
  begin
     id 7 
     name rfemur
     direction -0.34202 -0.939693 0   
     length 7.88987   
     axis 0 0 -20   XYZ
    dof rx ry rz
    limits (-160.0 20.0)
           (-70.0 70.0)
           (-70.0 60.0)
  end
  begin
     id 8 
     name rtibia
     direction -0.34202 -0.939693 0   
     length 7.87584   
     axis 0 0 -20   XYZ
    dof rx
    limits (-10.0 170.0)
 end
 begin
     id 9 
     name rfoot
     direction -0.130476 -0.358481 0.924374   
     length 2.21745  
     axis -90 -7.62852e-016 -20   XYZ
    dof rx rz
    limits (-45.0 90.0)
           (-20.0 70.0)
  end
  begin
     id 10 
     name rtoes
     direction 8.20695e-005 8.89091e-005 1   
     length 1.09536   
     axis -90 -7.62852e-016 -20   XYZ
    dof rx
    limits (-90.0 20.0)
  end
  begin
     id 11 
     name lowerback
     direction 0.00981224 0.999875 -0.0124197   
     length 1.94808   
     axis 0 0 0   XYZ
    dof rx ry rz
    limits (-20.0 45.0)
           (-30.0 30.0)
           (-30.0 30.0)
  end
  begin
     id 12 
     name upperback
     direction 0.038911 0.999194 0.00981686   
     length 1.94415   
     axis 0 0 0   XYZ
    dof rx ry rz
    limits (-20.0 45.0)
           (-30.0 30.0)
           (-30.0 30.0)
  end
  begin
     id 13 
     name thorax
     direction 0.0330692 0.999334 0.0154389   
     length 1.94117   
     axis 0 0 0   XYZ
    dof rx ry rz
    limits (-20.0 45.0)
           (-30.0 30.0)
           (-30.0 30.0)
  end
  begin
     id 14 
     name lowerneck
     direction -0.0374305 0.99415 0.10132   
     length 1.87291   
     axis 0 0 0   XYZ
    dof rx ry rz
    limits (-20.0 45.0)
           (-30.0 30.0)
           (-30.0 30.0)
  end
  begin
     id 15 
     name upperneck
     direction 0.0120692 0.985979 -0.166431   
     length 1.89248   
     axis 0 0 0   XYZ
    dof rx ry rz
    limits (-20.0 45.0)
           (-30.0 30.0)
           (-30.0 30.0)
  end
  begin
     id 16
     name head
     direction 0.00629908 0.997708 -0.06737  
     length 1.90559  
     axis 0 0 0   XYZ
    dof rx ry rz
    limits (-20.0 45.0)
           (-30.0 30.0)
           (-30.0 30.0)
  end
  begin
     id 17 
     name lclavicle
     direction 0.961536 0.27308 -0.0295863  
     length 3.52757  
     axis 0 0 0   XYZ
    dof ry rz
    limits (-20.0 10.0)
           (0.0 20.0)
  end
  begin
     id 18 
     name lhumerus
     direction 1 -4.48969e-011 2.61153e-029   
     length 5.14845   
     axis 180 -30 -90   XYZ
    dof rx ry rz
    limits (-60.0 90.0)
           (-90.0 90.0)
           (-90.0 90.0)
  end
  begin
     id 19
     name lradius
     direction 1 -4.4896e-011 -3.37549e-027   
     length 3.43674   
     axis 180 -30 -90   XYZ
    dof rx
    limits (-10.0 170.0)
  end
  begin
     id 20
     name lwrist
     direction 1 -4.48969e-011 2.56952e-028   
     length 1.71837   
     axis -5.12785e-016 90 90   XYZ
    dof ry
    limits (-180.0 0.0)
 end
  begin
     id 21 
     name lhand
     direction 1 -4.49094e-011 5.13905e-028   
     length 0.588709   
     axis -3.27915e-016 90 90   XYZ
    dof rx rz
    limits (-90.0 90.0)
           (-45.0 45.0)
  end
  begin
     id 22 
     name lfingers
     direction 1 -4.48821e-011 1.02781e-027   
     length 0.474633   
     axis -6.5583e-016 90 90   XYZ
    dof rx
    limits (0.0 90.0)
  end
  begin
     id 23
     name lthumb
     direction 0.707107 -6.34922e-011 0.707107   
     length 0.68148   
     axis -90 45 2.85299e-015   XYZ
    dof rx rz
    limits (-45.0 45.0)
           (-45.0 45.0)
  end
  begin
     id 24 
     name rclavicle
     direction -0.940964 0.333844 -0.0559866   
     length 3.55948  
     axis 0 0 0   XYZ 
    dof ry rz
    limits (-10.0 20.0)
           (-20.0 0.0)
  end
  begin
     id 25 
     name rhumerus
     direction -1 -4.48973e-011 3.15259e-027  
     length 5.42185   
     axis 180 30 90   XYZ
    dof rx ry rz
    limits (-90.0 60.0)
           (-90.0 90.0)
           (-90.0 90.0)
  end
  begin
     id 26 
     name rradius
     direction -1 -4.48954e-011 -2.56271e-027   
     length 3.51317   
     axis 180 30 90   XYZ
    dof rx
    limits (-10.0 170.0)
  end
  begin
     id 27 
     name rwrist
     direction -1 -4.48943e-011 2.56952e-028   
     length 1.75658   
     axis -5.12785e-016 -90 -90   XYZ
    dof ry
    limits (-180.0 0.0)
  end
  begin
     id 28
     name rhand
     direction -1 -4.4912e-011 5.13905e-028   
     length 0.663187   
     axis -3.27915e-016 -90 -90   XYZ
    dof rx rz
    limits (-90.0 90.0)
           (-45.0 45.0)
  end
  begin
     id 29
     name rfingers
     direction -1 -4.48914e-011 1.02781e-027   
     length 0.534679   
     axis -6.5583e-016 -90 -90   XYZ
    dof rx
    limits (0.0 90.0)
  end
  begin
     id 30
     name rthumb
     direction -0.707107 -6.35033e-011 0.707107   
     length 0.767695   
     axis -90 -45 -2.85299e-015   XYZ
    dof rx rz
    limits (-45.0 45.0)
           (-45.0 45.0)
  end
:hierarchy
  begin
    root lhipjoint rhipjoint lowerback
    lhipjoint lfemur
    lfemur ltibia
    ltibia lfoot
    lfoot ltoes
    rhipjoint rfemur
    rfemur rtibia
    rtibia rfoot
    rfoot rtoes
    lowerback upperback
    upperback thorax
    thorax lowerneck lclavicle rclavicle
    lowerneck upperneck
    upperneck head
    lclavicle lhumerus
    lhumerus lradius
    lradius lwrist
    lwrist lhand lthumb
    lhand lfingers
    rclavicle rhumerus
    rhumerus rradius
    rradius rwrist
    rwrist rhand rthumb
    rhand rfingers
  end

#!OML:ASF F:\VICON\USERDATA\INSTALL\Justin_a\Justin_a.ASF
:FULLY-SPECIFIED
:DEGREES
4214
root 2.47324 18.1159 8.46713 3.24927 76.5518 -2.3775
lowerback 0.611261 3.08478 -2.41322
upperback 2.01375 4.13144 0.400492
thorax 1.52399 2.0312 1.78163
lowerneck -4.66036 10.9193 -0.706553
upperneck 36.2423 22.398 -8.42199
head 14.3979 9.4725 -0.0315898
rclavicle -2.49723e-014 1.48592e-014
rhumerus -46.3662 -8.37262 -82.9863
rradius 34.1993
rwrist -13.3854
rhand -26.9904 11.3809
rfingers 7.12502
rthumb -0.410775 -18.5984
lclavicle -2.49723e-014 1.48592e-014
lhumerus -31.1003 13.3215 74.209
lradius 48.0387
lwrist 14.6201
lhand -18.538 26.2638
lfingers 7.12502
lthumb 7.75106 56.1018
rfemur -8.72316 1.38192 26.518
rtibia 56.092
rfoot -1.74753 -0.592484
rtoes -0.704717
lfemur -29.2704 -2.3217 -22.3403
ltibia 32.3859
lfoot -3.50992 -22.0052
ltoes 7.74258
4215
root 2.33514 18.0966 8.41655 4.28144 76.368 -1.5248
lowerback 0.585171 3.04066 -2.38128
upperback 1.90229 4.07114 0.336513
thorax 1.43365 2.00364 1.69605
lowerneck -4.73191 10.798 -0.774532
upperneck 36.3269 22.2224 -8.38966
head 14.4274 9.38154 -0.0284434
rclavicle 2.62396e-014 -1.47598e-014
rhumerus -46.4053 -8.39061 -83.1759
rradius 33.7602
rwrist -13.0998
rhand -26.9361 11.327
rfingers 7.12502
rthumb -0.358335 -18.6524
lclavicle 2.62396e-014 -1.47598e-014
lhumerus -31.1615 13.2341 74.156
lradius 48.5614
lwrist 15.0334
lhand -18.7638 26.2302
lfingers 7.12502
lthumb 7.53317 56.076
rfemur -7.6931 2.10047 26.5577
rtibia 53.8825
rfoot -3.22979 -1.29517
rtoes -2.64421
lfemur -29.9041 -2.33375 -22.5286
ltibia 32.1179
lfoot -2.7955 -22.1674
ltoes 8.39762
4216
root 2.19413 18.0776 8.3628 6.40618 76.1065 0.390269
lowerback 0.495838 3.08124 -2.59602
upperback 1.79871 4.12716 0.228368
thorax 1.36788 2.03073 1.70616
lowerneck -4.85532 10.6019 -0.919349
upperneck 36.3809 21.9201 -8.3231
head 14.4287 9.23069 -0.0170857
rclavicle 1.23495e-014 -1.68967e-015
rhumerus -46.4186 -8.37604 -83.3034
rradius 33.3777
rwrist -13.1282
rhand -27.0296 11.3087
rfingers 7.12502
rthumb -0.448705 -18.6706
lclavicle 1.23495e-014 -1.68967e-015
lhumerus -31.1979 13.1097 74.2751
lradius 49.1162
lwrist 15.4815
lhand -18.568 26.2523
lfingers 7.12502
lthumb 7.72215 56.0913
rfemur -6.74872 2.84954 26.2919
rtibia 51.6706
rfoot -5.24522 -2.20132
rtoes -6.63786
lfemur -30.5898 -2.48623 -22.9409
ltibia 31.8434
lfoot -2.02573 -22.2631
ltoes 9.25505
4217
root 2.04989 18.0573 8.30976 7.63719 75.8947 1.40578
lowerback 0.456339 3.10618 -2.65155
upperback 1.69862 4.15913 0.228746
thorax 1.28177 2.0477 1.73594
lowerneck -5.00886 10.4106 -1.19177
upperneck 36.4759 21.6341 -8.18782
head 14.4319 9.07607 0.04446
rclavicle 1.30452e-014 2.78299e-015
rhumerus -46.3431 -8.36717 -83.3313
rradius 32.9037
rwrist -13.256
rhand -27.1669 11.5243
rfingers 7.12502
rthumb -0.58132 -18.4547
lclavicle 1.30452e-014 2.78299e-015
lhumerus -31.2436 13.0154 74.5033
lradius 49.6754
lwrist 15.5531
lhand -18.5655 26.6133
lfingers 7.12502
lthumb 7.72456 56.4522
rfemur -5.85338 3.54784 26.2675
rtibia 49.491
rfoot -7.24618 -3.46863
rtoes -11.6034
lfemur -31.256 -2.77463 -23.0558
ltibia 31.5193
lfoot -1.2161 -22.2653
ltoes 9.68013
4218
root 1.89989 18.0327 8.25933 8.22143 75.6552 1.86609
lowerback 0.585139 3.12115 -2.57019
upperback 1.62954 4.17352 0.218778
thorax 1.14438 2.05841 1.67019
lowerneck -5.19303 10.25 -1.35396
upperneck 36.5331 21.4005 -8.13763
head 14.4559 8.94481 0.0681095
rclavicle -9.16894e-015 -9.93923e-016
rhumerus -46.2676 -8.55446 -83.3334
rradius 32.5736
rwrist -13.1209
rhand -27.0616 11.7302
rfingers 7.12502
rthumb -0.479607 -18.249
lclavicle -9.16894e-015 -9.93923e-016
lhumerus -31.3459 12.9521 74.6652
lradius 50.3026
lwrist 15.5175
lhand -18.6082 27.017
lfingers 7.12502
lthumb 7.68331 56.8575
rfemur -4.96268 4.15379 26.3558
rtibia 47.4641
rfoot -9.02286 -4.77093
rtoes -15.784
lfemur -31.8082 -2.88988 -23.0606
ltibia 31.0854
lfoot -0.484384 -22.5571
ltoes 8.91955
